<mxfile host="app.diagrams.net" modified="2023-11-22T00:49:07.940Z" agent="Mozilla/5.0 (Windows NT 10.0; Win64; x64) AppleWebKit/537.36 (KHTML, like Gecko) Chrome/119.0.0.0 Safari/537.36" etag="bGhgYmDFNSirgZ0AALLF" version="22.1.3" type="github">
  <diagram name="Page-1" id="2YBvvXClWsGukQMizWep">
    <mxGraphModel dx="1075" dy="553" grid="0" gridSize="10" guides="1" tooltips="1" connect="1" arrows="1" fold="1" page="1" pageScale="1" pageWidth="850" pageHeight="1100" math="0" shadow="0">
      <root>
        <mxCell id="0" />
        <mxCell id="1" parent="0" />
        <mxCell id="lu0mgNzLaSJTNHOdqmoG-1" value="Dialog" style="whiteSpace=wrap;html=1;align=center;strokeColor=#d79b00;fillStyle=solid;fillColor=#ffe6cc;" parent="1" vertex="1">
          <mxGeometry x="560" y="400" width="100" height="40" as="geometry" />
        </mxCell>
        <mxCell id="lu0mgNzLaSJTNHOdqmoG-2" value="User" style="whiteSpace=wrap;html=1;align=center;strokeColor=#d79b00;fillStyle=solid;fillColor=#ffe6cc;" parent="1" vertex="1">
          <mxGeometry x="210" y="400" width="100" height="40" as="geometry" />
        </mxCell>
        <mxCell id="lu0mgNzLaSJTNHOdqmoG-3" value="입력" style="shape=rhombus;perimeter=rhombusPerimeter;whiteSpace=wrap;html=1;align=center;fillColor=#f5f5f5;fontColor=#333333;strokeColor=#666666;" parent="1" vertex="1">
          <mxGeometry x="360" y="390" width="120" height="60" as="geometry" />
        </mxCell>
        <mxCell id="lu0mgNzLaSJTNHOdqmoG-4" value="" style="endArrow=none;html=1;rounded=0;exitX=0.588;exitY=1.015;exitDx=0;exitDy=0;exitPerimeter=0;entryX=0;entryY=0.5;entryDx=0;entryDy=0;" parent="1" source="lu0mgNzLaSJTNHOdqmoG-27" target="lu0mgNzLaSJTNHOdqmoG-2" edge="1">
          <mxGeometry relative="1" as="geometry">
            <mxPoint x="190" y="350" as="sourcePoint" />
            <mxPoint x="209" y="402" as="targetPoint" />
          </mxGeometry>
        </mxCell>
        <mxCell id="lu0mgNzLaSJTNHOdqmoG-7" value="" style="endArrow=none;html=1;rounded=0;entryX=0;entryY=0.5;entryDx=0;entryDy=0;" parent="1" source="lu0mgNzLaSJTNHOdqmoG-8" target="lu0mgNzLaSJTNHOdqmoG-2" edge="1">
          <mxGeometry relative="1" as="geometry">
            <mxPoint x="140" y="390" as="sourcePoint" />
            <mxPoint x="160" y="440" as="targetPoint" />
          </mxGeometry>
        </mxCell>
        <mxCell id="lu0mgNzLaSJTNHOdqmoG-8" value="비밀번호" style="ellipse;whiteSpace=wrap;html=1;align=center;fillColor=#fad7ac;strokeColor=#b46504;" parent="1" vertex="1">
          <mxGeometry x="70" y="360" width="100" height="40" as="geometry" />
        </mxCell>
        <mxCell id="lu0mgNzLaSJTNHOdqmoG-9" value="이름" style="ellipse;whiteSpace=wrap;html=1;align=center;direction=west;fillColor=#fad7ac;strokeColor=#b46504;" parent="1" vertex="1">
          <mxGeometry x="70" y="420" width="100" height="40" as="geometry" />
        </mxCell>
        <mxCell id="lu0mgNzLaSJTNHOdqmoG-10" value="" style="endArrow=none;html=1;rounded=0;entryX=0;entryY=0.5;entryDx=0;entryDy=0;exitX=0;exitY=0.5;exitDx=0;exitDy=0;" parent="1" source="lu0mgNzLaSJTNHOdqmoG-9" target="lu0mgNzLaSJTNHOdqmoG-2" edge="1">
          <mxGeometry relative="1" as="geometry">
            <mxPoint x="163" y="450" as="sourcePoint" />
            <mxPoint x="210" y="465" as="targetPoint" />
          </mxGeometry>
        </mxCell>
        <mxCell id="lu0mgNzLaSJTNHOdqmoG-11" value="" style="endArrow=none;html=1;rounded=0;entryX=1;entryY=0;entryDx=0;entryDy=0;exitX=0.5;exitY=1;exitDx=0;exitDy=0;" parent="1" source="lu0mgNzLaSJTNHOdqmoG-12" target="lu0mgNzLaSJTNHOdqmoG-1" edge="1">
          <mxGeometry relative="1" as="geometry">
            <mxPoint x="690" y="350" as="sourcePoint" />
            <mxPoint x="710" y="400" as="targetPoint" />
          </mxGeometry>
        </mxCell>
        <mxCell id="lu0mgNzLaSJTNHOdqmoG-12" value="User_ID" style="ellipse;whiteSpace=wrap;html=1;align=center;fillColor=#fad7ac;strokeColor=#b46504;" parent="1" vertex="1">
          <mxGeometry x="630" y="310" width="100" height="40" as="geometry" />
        </mxCell>
        <mxCell id="lu0mgNzLaSJTNHOdqmoG-14" value="" style="endArrow=none;html=1;rounded=0;entryX=1;entryY=0.25;entryDx=0;entryDy=0;exitX=0.056;exitY=0.765;exitDx=0;exitDy=0;exitPerimeter=0;" parent="1" source="lu0mgNzLaSJTNHOdqmoG-28" target="lu0mgNzLaSJTNHOdqmoG-1" edge="1">
          <mxGeometry relative="1" as="geometry">
            <mxPoint x="724" y="398.4" as="sourcePoint" />
            <mxPoint x="750" y="425" as="targetPoint" />
          </mxGeometry>
        </mxCell>
        <mxCell id="lu0mgNzLaSJTNHOdqmoG-16" value="" style="endArrow=none;html=1;rounded=0;entryX=1;entryY=0.25;entryDx=0;entryDy=0;exitX=0;exitY=0.5;exitDx=0;exitDy=0;" parent="1" source="lu0mgNzLaSJTNHOdqmoG-17" target="lu0mgNzLaSJTNHOdqmoG-1" edge="1">
          <mxGeometry relative="1" as="geometry">
            <mxPoint x="740" y="405" as="sourcePoint" />
            <mxPoint x="670" y="440" as="targetPoint" />
          </mxGeometry>
        </mxCell>
        <mxCell id="lu0mgNzLaSJTNHOdqmoG-17" value="message" style="ellipse;whiteSpace=wrap;html=1;align=center;fillColor=#fad7ac;strokeColor=#b46504;" parent="1" vertex="1">
          <mxGeometry x="710" y="410" width="100" height="40" as="geometry" />
        </mxCell>
        <mxCell id="lu0mgNzLaSJTNHOdqmoG-18" value="" style="endArrow=none;html=1;rounded=0;entryX=1;entryY=0.25;entryDx=0;entryDy=0;exitX=0;exitY=0;exitDx=0;exitDy=0;" parent="1" source="lu0mgNzLaSJTNHOdqmoG-19" target="lu0mgNzLaSJTNHOdqmoG-1" edge="1">
          <mxGeometry relative="1" as="geometry">
            <mxPoint x="730" y="465" as="sourcePoint" />
            <mxPoint x="660" y="440" as="targetPoint" />
          </mxGeometry>
        </mxCell>
        <mxCell id="lu0mgNzLaSJTNHOdqmoG-19" value="answer" style="ellipse;whiteSpace=wrap;html=1;align=center;fillColor=#fad7ac;strokeColor=#b46504;" parent="1" vertex="1">
          <mxGeometry x="710" y="470" width="90" height="40" as="geometry" />
        </mxCell>
        <mxCell id="lu0mgNzLaSJTNHOdqmoG-20" value="" style="endArrow=none;html=1;rounded=0;entryX=1;entryY=0.25;entryDx=0;entryDy=0;exitX=0.249;exitY=-0.045;exitDx=0;exitDy=0;exitPerimeter=0;" parent="1" source="lu0mgNzLaSJTNHOdqmoG-21" target="lu0mgNzLaSJTNHOdqmoG-1" edge="1">
          <mxGeometry relative="1" as="geometry">
            <mxPoint x="710" y="515" as="sourcePoint" />
            <mxPoint x="670" y="380" as="targetPoint" />
          </mxGeometry>
        </mxCell>
        <mxCell id="lu0mgNzLaSJTNHOdqmoG-21" value="date" style="ellipse;whiteSpace=wrap;html=1;align=center;fillColor=#fad7ac;strokeColor=#b46504;" parent="1" vertex="1">
          <mxGeometry x="690" y="520" width="90" height="40" as="geometry" />
        </mxCell>
        <mxCell id="lu0mgNzLaSJTNHOdqmoG-23" value="" style="endArrow=none;html=1;rounded=0;entryX=0;entryY=0.5;entryDx=0;entryDy=0;exitX=1;exitY=0.5;exitDx=0;exitDy=0;" parent="1" source="lu0mgNzLaSJTNHOdqmoG-2" target="lu0mgNzLaSJTNHOdqmoG-3" edge="1">
          <mxGeometry relative="1" as="geometry">
            <mxPoint x="340" y="420" as="sourcePoint" />
            <mxPoint x="500" y="420" as="targetPoint" />
          </mxGeometry>
        </mxCell>
        <mxCell id="lu0mgNzLaSJTNHOdqmoG-24" value="1" style="resizable=0;html=1;whiteSpace=wrap;align=right;verticalAlign=bottom;" parent="lu0mgNzLaSJTNHOdqmoG-23" connectable="0" vertex="1">
          <mxGeometry x="1" relative="1" as="geometry">
            <mxPoint x="-20" as="offset" />
          </mxGeometry>
        </mxCell>
        <mxCell id="lu0mgNzLaSJTNHOdqmoG-25" value="" style="endArrow=none;html=1;rounded=0;entryX=0;entryY=0.5;entryDx=0;entryDy=0;exitX=0.943;exitY=0.523;exitDx=0;exitDy=0;exitPerimeter=0;" parent="1" source="lu0mgNzLaSJTNHOdqmoG-3" edge="1">
          <mxGeometry relative="1" as="geometry">
            <mxPoint x="480" y="420" as="sourcePoint" />
            <mxPoint x="560" y="420" as="targetPoint" />
          </mxGeometry>
        </mxCell>
        <mxCell id="lu0mgNzLaSJTNHOdqmoG-26" value="N" style="resizable=0;html=1;whiteSpace=wrap;align=right;verticalAlign=bottom;" parent="lu0mgNzLaSJTNHOdqmoG-25" connectable="0" vertex="1">
          <mxGeometry x="1" relative="1" as="geometry" />
        </mxCell>
        <mxCell id="lu0mgNzLaSJTNHOdqmoG-27" value="&lt;b&gt;User_ID&lt;/b&gt;" style="ellipse;whiteSpace=wrap;html=1;align=center;fontStyle=4;fillColor=#fad7ac;strokeColor=#b46504;" parent="1" vertex="1">
          <mxGeometry x="120" y="320" width="100" height="40" as="geometry" />
        </mxCell>
        <mxCell id="lu0mgNzLaSJTNHOdqmoG-28" value="&lt;b&gt;chat_ID&lt;/b&gt;" style="ellipse;whiteSpace=wrap;html=1;align=center;fontStyle=4;fillColor=#fad7ac;strokeColor=#b46504;" parent="1" vertex="1">
          <mxGeometry x="720" y="350" width="100" height="40" as="geometry" />
        </mxCell>
        <mxCell id="Rqa1QfK9Gh2-wgY78JKW-1" value="" style="endArrow=none;html=1;rounded=0;" edge="1" parent="1" target="Rqa1QfK9Gh2-wgY78JKW-3">
          <mxGeometry relative="1" as="geometry">
            <mxPoint x="259.00207547169816" y="440" as="sourcePoint" />
            <mxPoint x="260" y="474" as="targetPoint" />
          </mxGeometry>
        </mxCell>
        <mxCell id="Rqa1QfK9Gh2-wgY78JKW-2" value="1" style="resizable=0;html=1;whiteSpace=wrap;align=right;verticalAlign=bottom;" connectable="0" vertex="1" parent="Rqa1QfK9Gh2-wgY78JKW-1">
          <mxGeometry x="1" relative="1" as="geometry">
            <mxPoint x="-20" as="offset" />
          </mxGeometry>
        </mxCell>
        <mxCell id="Rqa1QfK9Gh2-wgY78JKW-6" style="edgeStyle=none;curved=1;rounded=0;orthogonalLoop=1;jettySize=auto;html=1;fontSize=12;startSize=8;endSize=8;" edge="1" parent="1" source="Rqa1QfK9Gh2-wgY78JKW-3">
          <mxGeometry relative="1" as="geometry">
            <mxPoint x="256" y="482.1199951171875" as="targetPoint" />
          </mxGeometry>
        </mxCell>
        <mxCell id="Rqa1QfK9Gh2-wgY78JKW-3" value="로그인" style="shape=rhombus;perimeter=rhombusPerimeter;whiteSpace=wrap;html=1;align=center;fillColor=#f5f5f5;fontColor=#333333;strokeColor=#666666;" vertex="1" parent="1">
          <mxGeometry x="200" y="483" width="120" height="60" as="geometry" />
        </mxCell>
        <mxCell id="Rqa1QfK9Gh2-wgY78JKW-7" value="login" style="whiteSpace=wrap;html=1;align=center;strokeColor=#d79b00;fillStyle=solid;fillColor=#ffe6cc;" vertex="1" parent="1">
          <mxGeometry x="215" y="572" width="100" height="40" as="geometry" />
        </mxCell>
        <mxCell id="Rqa1QfK9Gh2-wgY78JKW-9" value="" style="endArrow=none;html=1;rounded=0;exitX=0.5;exitY=1;exitDx=0;exitDy=0;" edge="1" parent="1" source="Rqa1QfK9Gh2-wgY78JKW-3">
          <mxGeometry relative="1" as="geometry">
            <mxPoint x="259.50207547169816" y="550" as="sourcePoint" />
            <mxPoint x="260" y="571" as="targetPoint" />
          </mxGeometry>
        </mxCell>
        <mxCell id="Rqa1QfK9Gh2-wgY78JKW-10" value="1" style="resizable=0;html=1;whiteSpace=wrap;align=right;verticalAlign=bottom;" connectable="0" vertex="1" parent="Rqa1QfK9Gh2-wgY78JKW-9">
          <mxGeometry x="1" relative="1" as="geometry">
            <mxPoint x="-20" as="offset" />
          </mxGeometry>
        </mxCell>
        <mxCell id="Rqa1QfK9Gh2-wgY78JKW-11" value="&lt;b&gt;User_ID&lt;/b&gt;" style="ellipse;whiteSpace=wrap;html=1;align=center;fontStyle=4;fillColor=#fad7ac;strokeColor=#b46504;" vertex="1" parent="1">
          <mxGeometry x="77" y="543" width="100" height="40" as="geometry" />
        </mxCell>
        <mxCell id="Rqa1QfK9Gh2-wgY78JKW-12" value="" style="endArrow=none;html=1;rounded=0;exitX=0.982;exitY=0.606;exitDx=0;exitDy=0;exitPerimeter=0;entryX=0.002;entryY=0.534;entryDx=0;entryDy=0;entryPerimeter=0;" edge="1" parent="1" source="Rqa1QfK9Gh2-wgY78JKW-11" target="Rqa1QfK9Gh2-wgY78JKW-7">
          <mxGeometry relative="1" as="geometry">
            <mxPoint x="162" y="546" as="sourcePoint" />
            <mxPoint x="214" y="593" as="targetPoint" />
          </mxGeometry>
        </mxCell>
        <mxCell id="Rqa1QfK9Gh2-wgY78JKW-13" value="비밀번호" style="ellipse;whiteSpace=wrap;html=1;align=center;fillColor=#fad7ac;strokeColor=#b46504;" vertex="1" parent="1">
          <mxGeometry x="75" y="597" width="100" height="40" as="geometry" />
        </mxCell>
        <mxCell id="Rqa1QfK9Gh2-wgY78JKW-14" value="" style="endArrow=none;html=1;rounded=0;exitX=1;exitY=0.5;exitDx=0;exitDy=0;" edge="1" parent="1" source="Rqa1QfK9Gh2-wgY78JKW-13">
          <mxGeometry relative="1" as="geometry">
            <mxPoint x="158" y="628" as="sourcePoint" />
            <mxPoint x="215" y="594" as="targetPoint" />
          </mxGeometry>
        </mxCell>
      </root>
    </mxGraphModel>
  </diagram>
</mxfile>
